<svg xmlns="http://www.w3.org/2000/svg" viewBox="0 0 48 48">
    <path d="M18.5,36.8c0.6,0,1.3-0.2,1.8-0.6s0.6-1,0.6-1.8V13.6c0-0.6-0.2-1.1-0.6-1.6c-0.5-0.6-1.1-0.8-1.8-0.8s-1.3,0.2-1.8,0.6
        c-0.5,0.5-0.6,1-0.6,1.8v20.8c0,0.6,0.2,1.1,0.6,1.6C17.2,36.7,17.9,36.8,18.5,36.8z M31.3,36.8c0.6,0,1.3-0.2,1.8-0.6
        c0.5-0.5,0.6-1,0.6-1.8V13.6c0-0.6-0.2-1.1-0.6-1.6c-0.5-0.6-1.1-0.8-1.8-0.8s-1.3,0.2-1.8,0.6c-0.5,0.5-0.6,1-0.6,1.8v20.8
        c0,0.6,0.2,1.1,0.6,1.6C30,36.7,30.7,36.8,31.3,36.8z"/>
</svg>
    