<svg xmlns="http://www.w3.org/2000/svg" viewBox="0 0 48 48">
	<path d="M28.9,37.5c-0.4,0.1-0.8,0.1-1.2-0.2c-0.3-0.3-0.5-0.6-0.5-1.1c0-0.2,0.1-0.4,0.2-0.6c0.1-0.2,0.3-0.3,0.5-0.3
		c2.4-0.9,4.4-2.3,5.9-4.4c1.5-2.1,2.2-4.4,2.2-7s-0.7-4.9-2.2-7c-1.5-2.1-3.5-3.5-5.9-4.3c-0.2-0.1-0.4-0.2-0.5-0.4
		c-0.1-0.2-0.2-0.4-0.2-0.6c0-0.5,0.2-0.8,0.5-1.1c0.4-0.3,0.7-0.3,1.1-0.2c2.9,1,5.2,2.8,6.9,5.2s2.6,5.2,2.6,8.3s-0.9,5.8-2.6,8.3
		S31.7,36.5,28.9,37.5z M10.8,28.8c-0.3,0-0.6-0.1-0.9-0.3c-0.2-0.2-0.3-0.5-0.3-0.9v-7.2c0-0.3,0.1-0.6,0.3-0.9
		c0.2-0.2,0.5-0.3,0.9-0.3H16l6-6c0.4-0.4,0.8-0.5,1.3-0.3c0.5,0.2,0.7,0.6,0.7,1.1v19.8c0,0.5-0.2,0.9-0.7,1.1
		c-0.5,0.2-0.9,0.1-1.3-0.3l-6-6H10.8z M26.4,30.7V17.2c1.4,0.5,2.6,1.3,3.5,2.6c0.9,1.3,1.3,2.7,1.3,4.2c0,1.6-0.4,3-1.3,4.2
		C29,29.4,27.8,30.3,26.4,30.7z"/>
</svg>
